<svg width="16" height="16" viewBox="0 0 16 16" fill="none" xmlns="http://www.w3.org/2000/svg">
<rect width="16" height="16" rx="8" fill="black"/>
<path d="M8.24609 8.89453V7.92969H10.7383V10.2109C10.4961 10.4453 10.1445 10.6523 9.68359 10.832C9.22526 11.0091 8.76042 11.0977 8.28906 11.0977C7.6901 11.0977 7.16797 10.9727 6.72266 10.7227C6.27734 10.4701 5.94271 10.1107 5.71875 9.64453C5.49479 9.17578 5.38281 8.66667 5.38281 8.11719C5.38281 7.52083 5.50781 6.99089 5.75781 6.52734C6.00781 6.0638 6.3737 5.70833 6.85547 5.46094C7.22266 5.27083 7.67969 5.17578 8.22656 5.17578C8.9375 5.17578 9.49219 5.32552 9.89062 5.625C10.2917 5.92188 10.5495 6.33333 10.6641 6.85938L9.51562 7.07422C9.4349 6.79297 9.28255 6.57161 9.05859 6.41016C8.83724 6.24609 8.5599 6.16406 8.22656 6.16406C7.72135 6.16406 7.31901 6.32422 7.01953 6.64453C6.72266 6.96484 6.57422 7.4401 6.57422 8.07031C6.57422 8.75 6.72526 9.26042 7.02734 9.60156C7.32943 9.9401 7.72526 10.1094 8.21484 10.1094C8.45703 10.1094 8.69922 10.0625 8.94141 9.96875C9.1862 9.8724 9.39583 9.75651 9.57031 9.62109V8.89453H8.24609Z" fill="#FFCA3D"/>
</svg>
